# xmcd
# 
# Track frame offsets:
#     150
#     20242
#     43403
#     62876
#     85218
#     106745
#     122480
#     142384
#     162432
#     181306
#     198679
#     218165
#     236622
#     259882
# 
# Disc length: 3721
# 
# Revision: 10
# Processed by: cddbd v1.5.2PL0 Copyright (c) Steve Scherf et al.
# Submitted via: BonkEnc v1.0
# 
DISCID=d90e870e
DTITLE=Various Artist - 美しき日々～Beautiful Days～
DYEAR=2003
DGENRE=Soundtrack
TTITLE0=ZERO - その日までさよなら
TTITLE1=ZERO - 約束
TTITLE2=イ・ジョンヒョン - Heaven
TTITLE3=リュ・シウォン - 約束
TTITLE4=ZERO - あなたの後ろで(Scat)
TTITLE5=ZERO - For you
TTITLE6=リュ・シウォン - その日までさよなら
TTITLE7=ZERO - いつも今日のように(Scat)
TTITLE8=イ・ジョンヒョン - 夢
TTITLE9=リュ・シウォン - Missing you
TTITLE10=ZERO - Please(Instrumental)
TTITLE11=リュ・シウォン - 傷あと
TTITLE12=ZERO - 君だけのために(Instrumental)
TTITLE13=ZERO - 願い
EXTD=YEAR: 2003
EXTT0=
EXTT1=
EXTT2=
EXTT3=
EXTT4=
EXTT5=
EXTT6=
EXTT7=
EXTT8=
EXTT9=
EXTT10=
EXTT11=
EXTT12=
EXTT13=
PLAYORDER=
